<?xml version="1.0" encoding="utf-8"?>
<!-- Generator: Adobe Illustrator 27.8.1, SVG Export Plug-In . SVG Version: 6.00 Build 0)  -->
<svg version="1.1" id="Layer_1" xmlns="http://www.w3.org/2000/svg" xmlns:xlink="http://www.w3.org/1999/xlink" x="0px" y="0px"
	 width="130px" height="100px" viewBox="0 0 130 100" style="enable-background:new 0 0 130 100;" xml:space="preserve">
<style type="text/css">
	.st0{fill:#FFFFFF;}
	.st1{fill:#F49D20;}
	.st2{fill:#E82128;}
	.st3{fill:#F16223;}
	.st4{fill:#EB2027;}
	.st5{fill:#7272B4;}
	.st6{fill:#119FDA;}
	.st7{fill:#4285F4;}
	.st8{fill:#34A853;}
	.st9{fill:#FABB05;}
	.st10{fill:#E94235;}
</style>
<g>
	<g>
		<path class="st0" d="M66.4,90l-41,0c-3.6,0-6.6-3-6.6-6.6l0-66.8c0-3.6,3-6.6,6.6-6.6l41,0c38.9,0,44.7,25,44.7,39.9
			C111.1,75.8,95.2,90,66.4,90z M25.5,12.2c-2.4,0-4.4,2-4.4,4.4l0,66.8c0,2.4,2,4.4,4.4,4.4l41,0c27.4,0,42.5-13.5,42.5-37.9
			c0-32.8-26.6-37.7-42.5-37.7L25.5,12.2L25.5,12.2z"/>
	</g>
</g>
<g>
	<polygon class="st0" points="80.5,45.5 78.7,50.6 82.3,50.6 80.6,45.5 	"/>
	<path class="st0" d="M55.3,45.9c-0.3-0.4-0.7-0.7-1.2-0.9c-0.5-0.2-1.1-0.3-1.9-0.3H50l0,8.8h2.7v0c0.4,0,0.9-0.1,1.3-0.2
		c0.4-0.1,0.8-0.4,1.1-0.7c0.3-0.3,0.6-0.8,0.8-1.3c0.2-0.5,0.3-1.2,0.3-2c0-0.7-0.1-1.3-0.2-1.9C55.9,46.8,55.6,46.3,55.3,45.9z"/>
	<path class="st0" d="M69.4,18.6l-21,0c-2.4,0-4.4,2-4.4,4.4l0,58.3l25.4,0c23,0,33-13,33-31.4C102.4,32.3,92.4,18.6,69.4,18.6z
		 M58.9,51.7c-0.3,0.9-0.7,1.6-1.2,2.2c-0.5,0.6-1.2,1.1-2,1.5C55,55.7,54.1,56,53,56h-6L47,42l5.9,0v0c0.9,0,1.7,0.1,2.5,0.4
		c0.8,0.3,1.4,0.7,2,1.3c0.5,0.6,1,1.3,1.3,2.1c0.3,0.9,0.5,1.9,0.5,3C59.3,49.9,59.1,50.8,58.9,51.7z M71.8,56l-10.6,0l0-13.9
		l10.4,0v0v2.6h-7.3v3h6.8V50l-6.8,0v3.4h7.5V56z M84.2,56l-1.1-3.1h-5.2L76.8,56l-3.1,0L79,42.1l3.2,0L87.4,56L84.2,56z M89.3,56
		l0-13.9l3.1,0l0,11.4l6.8,0V56L89.3,56z"/>
</g>
<g>
	<circle class="st0" cx="32.5" cy="49" r="6.4"/>
</g>
<path class="st0" d="M37.4,81.3L37.4,81.3c-5.4,0-9.7-4.4-9.7-9.7l0-7.6c0-2.7,2.2-4.9,4.9-4.9l0,0c2.7,0,4.9,2.2,4.9,4.9L37.4,81.3
	L37.4,81.3z"/>
</svg>
