<?xml version="1.0" encoding="utf-8"?>
<!-- Generator: Adobe Illustrator 27.8.1, SVG Export Plug-In . SVG Version: 6.00 Build 0)  -->
<svg version="1.1" id="Layer_1" xmlns="http://www.w3.org/2000/svg" xmlns:xlink="http://www.w3.org/1999/xlink" x="0px" y="0px"
	 width="130px" height="100px" viewBox="0 0 130 100" style="enable-background:new 0 0 130 100;" xml:space="preserve">
<style type="text/css">
	.st0{fill:#FFFFFF;}
	.st1{fill:#F49D20;}
	.st2{fill:#E82128;}
	.st3{fill:#F16223;}
	.st4{fill:#EB2027;}
	.st5{fill:#7272B4;}
	.st6{fill:#119FDA;}
	.st7{fill:#4285F4;}
	.st8{fill:#34A853;}
	.st9{fill:#FABB05;}
	.st10{fill:#E94235;}
</style>
<g>
	<g>
		<g>
			<path class="st0" d="M35.5,36.4c1.1-1.4,1.9-3.3,1.7-5.2c-1.6,0.1-3.6,1.1-4.8,2.5c-1,1.2-1.9,3.1-1.7,5
				C32.5,38.8,34.3,37.7,35.5,36.4"/>
			<path class="st0" d="M37.1,39c-2.7-0.2-4.9,1.5-6.2,1.5c-1.3,0-3.2-1.4-5.3-1.4c-2.7,0-5.3,1.6-6.7,4c-2.9,4.9-0.8,12.2,2,16.2
				c1.3,2,3,4.2,5.1,4.1c2-0.1,2.8-1.3,5.3-1.3c2.5,0,3.2,1.3,5.3,1.3c2.2,0,3.6-2,5-4c1.5-2.3,2.2-4.4,2.2-4.6c0,0-4.3-1.7-4.3-6.5
				c0-4.1,3.3-6,3.5-6.2C41.1,39.4,38.2,39.1,37.1,39"/>
		</g>
		<g>
			<path class="st0" d="M60.3,33.5c5.8,0,9.8,4,9.8,9.8c0,5.8-4.1,9.8-9.9,9.8h-6.4v10.2h-4.6V33.5L60.3,33.5L60.3,33.5z M53.7,49.2
				H59c4,0,6.3-2.2,6.3-5.9c0-3.8-2.3-5.9-6.3-5.9h-5.3V49.2z"/>
			<path class="st0" d="M71.3,57.1c0-3.8,2.9-6.1,8.1-6.4l5.9-0.4v-1.7c0-2.4-1.6-3.9-4.4-3.9c-2.6,0-4.2,1.2-4.6,3.2h-4.2
				c0.2-3.9,3.6-6.8,9-6.8c5.3,0,8.6,2.8,8.6,7.1v15h-4.3v-3.6h-0.1c-1.3,2.4-4,3.9-6.8,3.9C74.2,63.6,71.3,61,71.3,57.1z
				 M85.3,55.1v-1.7l-5.3,0.3c-2.7,0.2-4.2,1.4-4.2,3.2c0,1.9,1.6,3.1,4,3.1C82.8,60.1,85.3,57.9,85.3,55.1z"/>
			<path class="st0" d="M93.7,71.2v-3.6c0.3,0.1,1.1,0.1,1.4,0.1c2.1,0,3.2-0.9,3.9-3.1c0,0,0.4-1.3,0.4-1.3l-7.8-21.7h4.8l5.5,17.7
				h0.1l5.5-17.7h4.7l-8.1,22.8c-1.9,5.3-4,7-8.5,7C95.2,71.3,94.1,71.3,93.7,71.2z"/>
		</g>
	</g>
</g>
</svg>
