<?xml version="1.0" encoding="utf-8"?>
<!-- Generator: Adobe Illustrator 27.8.1, SVG Export Plug-In . SVG Version: 6.00 Build 0)  -->
<svg version="1.1" id="Layer_1" xmlns="http://www.w3.org/2000/svg" xmlns:xlink="http://www.w3.org/1999/xlink" x="0px" y="0px"
	 width="130px" height="100px" viewBox="0 0 130 100" style="enable-background:new 0 0 130 100;" xml:space="preserve">
<style type="text/css">
	.st0{fill:#FFFFFF;}
	.st1{fill:#F49D20;}
	.st2{fill:#E82128;}
	.st3{fill:#F16223;}
	.st4{fill:#EB2027;}
	.st5{fill:#7272B4;}
	.st6{fill:#119FDA;}
	.st7{fill:#4285F4;}
	.st8{fill:#34A853;}
	.st9{fill:#FABB05;}
	.st10{fill:#E94235;}
</style>
<path id="Bancontact_3_" class="st0" d="M13,82.6v-15h4.6c3.4,0,5.5,1.3,5.5,3.9c0,1.5-0.7,2.5-1.7,3.1c1.4,0.6,2.2,1.9,2.2,3.6
	c0,3-2.2,4.4-5.6,4.4H13z M16,73.9h2.2c1.4,0,1.9-0.7,1.9-1.9c0-1.3-1.1-1.7-2.5-1.7H16V73.9z M16,80h1.8c1.8,0,2.9-0.5,2.9-1.9
	c0-1.4-0.9-2-2.6-2H16V80z M29.5,82.9c-2.9,0-4.4-1.4-4.4-3.4c0-2.1,1.7-3.4,4.3-3.4c0.6,0,1.4,0.1,1.9,0.2v-0.5
	c0-1.3-0.8-1.9-2.2-1.9c-0.9,0-2,0.2-2.8,0.5l-0.5-2.3c0.9-0.4,2.4-0.6,3.7-0.6c3.2,0,4.7,1.7,4.7,4.6v6
	C33.3,82.4,31.7,82.9,29.5,82.9z M31.3,80.5v-2.3c-0.5-0.1-1-0.2-1.5-0.2c-1,0-1.8,0.4-1.8,1.4c0,0.9,0.6,1.4,1.8,1.4
	C30.5,80.8,31,80.6,31.3,80.5z M36.3,82.6V72.4c1.4-0.6,3.2-0.9,4.9-0.9c3.1,0,4.9,1.5,4.9,4.4v6.8h-3V76c0-1.5-0.7-2.2-2-2.2
	c-0.7,0-1.3,0.1-1.9,0.4v8.4H36.3z M56.4,72.1l-0.6,2.3c-0.8-0.3-1.7-0.5-2.4-0.5c-1.7,0-2.7,1.2-2.7,3.2c0,2.2,1,3.3,2.8,3.3
	c0.7,0,1.6-0.2,2.4-0.6l0.5,2.4c-0.7,0.4-1.8,0.6-3.1,0.6c-3.6,0-5.6-2.2-5.6-5.7c0-3.5,2-5.8,5.5-5.8
	C54.4,71.4,55.6,71.7,56.4,72.1z M62.8,82.9c-3.3,0-5.4-2.3-5.4-5.8c0-3.4,2.1-5.7,5.4-5.7c3.3,0,5.3,2.3,5.3,5.7
	C68.2,80.6,66.1,82.9,62.8,82.9z M62.8,80.4c1.5,0,2.3-1.3,2.3-3.3c0-2-0.8-3.3-2.3-3.3c-1.5,0-2.3,1.3-2.3,3.3
	C60.5,79.2,61.3,80.4,62.8,80.4z M69.9,82.6V72.4c1.4-0.6,3.2-0.9,4.9-0.9c3.1,0,4.9,1.5,4.9,4.4v6.8h-3V76c0-1.5-0.7-2.2-2-2.2
	c-0.7,0-1.3,0.1-1.9,0.4v8.4H69.9z M86.3,82.9c-2.6,0-3.9-1.4-3.9-4.2V74H81v-2.4h1.5v-2.4l3-0.2v2.5h2.4V74h-2.4v4.6
	c0,1.2,0.5,1.8,1.5,1.8c0.5,0,0.9-0.1,1.1-0.1l0.2,2.4C87.7,82.8,87,82.9,86.3,82.9z M93.8,82.9c-2.9,0-4.4-1.4-4.4-3.4
	c0-2.1,1.7-3.4,4.3-3.4c0.6,0,1.4,0.1,1.9,0.2v-0.5c0-1.3-0.8-1.9-2.2-1.9c-0.9,0-2,0.2-2.8,0.5l-0.5-2.3c0.9-0.4,2.4-0.6,3.7-0.6
	c3.2,0,4.7,1.7,4.7,4.6v6C97.6,82.4,96,82.9,93.8,82.9z M95.6,80.5v-2.3c-0.5-0.1-1-0.2-1.5-0.2c-1,0-1.8,0.4-1.8,1.4
	c0,0.9,0.6,1.4,1.8,1.4C94.8,80.8,95.3,80.6,95.6,80.5z M108.6,72.1l-0.6,2.3c-0.8-0.3-1.7-0.5-2.4-0.5c-1.7,0-2.7,1.2-2.7,3.2
	c0,2.2,1,3.3,2.8,3.3c0.7,0,1.6-0.2,2.4-0.6l0.5,2.4c-0.7,0.4-1.8,0.6-3.1,0.6c-3.6,0-5.6-2.2-5.6-5.7c0-3.5,2-5.8,5.5-5.8
	C106.6,71.4,107.8,71.7,108.6,72.1z M115.1,82.9c-2.6,0-3.9-1.4-3.9-4.2V74h-1.5v-2.4h1.5v-2.4l3-0.2v2.5h2.4V74h-2.4v4.6
	c0,1.2,0.5,1.8,1.5,1.8c0.5,0,0.9-0.1,1.1-0.1l0.2,2.4C116.5,82.8,115.8,82.9,115.1,82.9z"/>
<path id="blue-symbol_1_" class="st0" d="M33.7,60.1c15.7,0,23.5-10.4,31.3-20.9H13v20.9H33.7z"/>
<path id="yellow-symbol_4_" class="st0" d="M96.3,18.3c-15.7,0-23.5,10.4-31.3,20.9h52V18.3H96.3z"/>
</svg>
