<?xml version="1.0" encoding="UTF-8"?><svg id="Laag_1" xmlns="http://www.w3.org/2000/svg" viewBox="0 0 2499.84 1595"><defs><style>.cls-1{fill:#fff;}.cls-2{fill:#3f3f42;}.cls-2,.cls-3{fill-rule:evenodd;}.cls-3{fill:#b03;}</style></defs><path class="cls-1" d="m0,0h2499.84v1595H0V0Z"/><path class="cls-2" d="m1605,1087.25c-42.23,11.79-97.22,16.71-144.37,16.71-122.79,0-203.36-63.86-203.36-180.71s75.64-182.7,185.63-182.7c24.6,0,51.09,2.92,66.83,10.77v-161.03h95.27v496.97Zm-95.27-253.38c-14.76-6.91-35.36-10.81-58.94-10.81-57.96,0-96.25,35.36-96.25,97.22,0,65.81,41.26,103.16,109.06,103.16,11.74,0,30.4,0,46.13-3.94v-185.63Zm878.16,253.38c-42.23,11.79-97.27,16.71-145.39,16.71-121.77,0-203.31-63.86-203.31-180.71s75.64-182.7,185.63-182.7c25.52,0,51.05,2.92,66.83,10.77v-161.03h96.25v496.97Zm-96.25-253.38c-14.76-6.91-34.39-10.81-58.01-10.81-58.94,0-97.22,35.36-97.22,97.22,0,65.81,42.23,103.16,109.98,103.16,11.83,0,29.51,0,45.25-3.94v-185.63Zm-536.33,0c15.69-6.91,38.29-8.86,56.94-8.86,58.94,0,99.22,33.41,99.22,93.28,0,70.77-45.2,103.16-105.11,104.14v81.54h4.92c123.77,0,197.46-67.75,197.46-188.6,0-109.98-78.61-174.82-194.49-174.82-58.94,0-116.95,13.74-155.23,29.47v466.53h96.29v-402.67Z"/><g><polygon class="cls-3" points="950.92 600.53 950.92 600.55 950.97 600.53 950.92 600.53"/><path class="cls-3" d="m947.02,602.02l-8.48,5.39-.38-.47-10.81,6.87.07.08-8.88,4.84.04.04-8.95,4.88.07.08-8.88,4.84.04.05-8.86,4.83.31.36-9.12,4.56.37.43-8.26,4.48.07.08-8.88,4.84.05.06-8.91,4.86.07.08-8.88,4.84.02.03-8.89,4.84.07.08-8.88,4.84.38.44-8.22,4.48.15.17-6.67,4.23-.39-.46-8.46,5.4-.41-.48-8.4,5.36-.42-.49-8.44,5.42-.43-.5-7.79,4.97h0s-10.81,6.82-10.81,6.82l.05.06-8.91,4.86.07.08-8.88,4.84.05.06-8.91,4.86.07.08-8.88,4.84.05.06-8.92,4.86.35.41-8.19,4.47.05.06-8.91,4.86.07.08-8.88,4.84.09.11-6.15,3.84c-.26,0-.52.07-.78.18l-.15-.18c-4.07,1.83-8.68,1.94-12.82.37l-.24-.28h-.49c-.07-.03-.15-.05-.23-.09l-4.92-3.94,2.17,2.54-20.11-12.29c-2-.93-2.97-2.92-4.92-4.92-2-2.92-2-4.87-2.97-6.87v-26.59c0-2.47,1.38-5.57,2.96-8.25l.31.36c.77-1.74,2.16-3.13,3.9-3.9l3.59-2.4.35.41,7.78-4.94.06.07,8.42-5.39.44.51,8.47-5.38.35.41,8.47-5.38.39.46,10.81-6.87-.07-.08,8.88-4.84-.05-.06,8.92-4.86-.42-.49,6.29-3.43.02.02,10.81-5.89-.07-.08,8.88-4.84-.05-.06,8.92-4.86-.07-.08,7.23-3.94.06.07,10.81-5.89-.19-.22,8.64-4.32-.56-.65,8.4-4.6-.04-.05,8.9-4.87-.05-.06,8.87-4.86-.15-.17,6.67-4.23.4.46,7.8-4.97.05.05,8.7-5.07.17.19,8.4-5.4.37.43,10.86-6.82-.07-.08,8.88-4.84-.05-.06,8.91-4.86-.07-.08,8.88-4.84-.29-.34,9.16-4.58-.37-.43,8.21-4.49-.05-.06,8.91-4.86-.04-.05,8.86-4.83-.05-.06,8.91-4.86-.08-.09,6.9-3.85-18.45-9.61-.15-.18-23.23-12.4-.34-.4-24.27-12.49-.28-.32-23.31-12.35-.31-.36-23.33-12.47-.25-.29-24.43-12.63-.12-.14-23.29-12.44-.28-.33-23.22-12.4-.35-.41-24.43-12.63-.12-.14-23.31-12.41-.26-.31-22.66-11.74-.92-1.06-24.43-12.63-.12-.14s-14.65-7.82-23.29-12.44l-.28-.33-30.44-16.71.28.33-23.86-13.09,1.2,1.4-18.54-9.87-.34-.39-5.89-2.92c-4.76-2.79-10.22-4.16-15.73-3.94l.32.38h-.32c-2.7,0-5.41.46-8.1,1.06l-.36-.42v-.05c-.82.4-1.79.8-2.72,1.2-.2.05-.41.1-.61.15l.07.08c-1.13.5-2.14,1.01-2.63,1.53l-3.61,1.79-.7-.81-10.81,5.89.05.06-8.87,4.86.02.03-8.89,4.84.05.06-8.87,4.86.07.08-6.49,3.47-.49-.57-8.43,5.38-.39-.46-10.81,5.89.03.03-8.84,4.84.05.06-8.91,4.86.05.06-8.87,4.86.04.05-6.44,3.52-.52-.6-11.79,5.89.28.32-9.1,4.55.22.26-9.44,4.66.32.37-9.09,4.55.33.39-9.24,4.62.36.42-5.58,2.79-.32-.37-11.79,5.89.31.36-9.12,4.56.29.34-9.16,4.58.07.08-8.88,4.84.05.06-8.92,4.86.04.05-6.37,3.5-.54-.63-10.81,5.89.07.08-8.88,4.84.12.14-6.99,3.81h0s-10.81,5.89-10.81,5.89l.05.06-8.92,4.86.03.03-6.41,3.51-.49-.57-10.81,5.85.07.08-8.88,4.84.04.05-8.9,4.87.07.08-8.88,4.84.02.03-8.89,4.84.07.08-6.42,3.5-.52-.6-10.81,5.89.07.08-8.88,4.84.05.06-8.91,4.86.04.05-8.86,4.83.05.06-8.91,4.86.07.08-6.42,3.5-.52-.6-11.79,5.89.4.49-4.29,2.44,11.41,6.28,1.31,1.61,30.75,16.69,20.37,11.73.02.02,31.42,18.7-1.04-1.22,20.13,11.3.59.69,24.82,13.99.65.77,24.76,13.88,25.28,14.52.08.09,25.51,14.69.02.02.36.2,6.51,3.75-.33-.38,17.71,9.65,1.32,1.54,24.89,13.97.63.74,31.42,17.68-.7-.82,26.27,15.58-.78-.91,26.3,15.62-.97-1.14,18.09,10.16,1.54,1.79,24.17,13.17,1.36,1.58,28.02,15.23,6.58,4.4c3.4,1.68,6.79,5.56,7.67,9.75l-.8-.93c0,1.02,1.02,2,1.02,2.97v344.78h-.05l.05.05v11.73c-.03,1.23-.37,2.42-.96,3.48l-.23-.26h-.05c-.1.41-.22.82-.36,1.23-.13.16-.26.32-.4.48l.16.18c-1.04,2.63-2.87,5.02-4.85,6.25l-.44-.52c0,.45,0,.69-.1.82-.09.05-.18.09-.27.13-.13.02-.31.02-.56.02l-6.78,4.06-.14-.16-8.69,5.06-.12-.15-6.91,3.94c-1.12.53-2.24.76-3.37.85l-.15-.17c-.32,0-.76.1-1.23.24-.38,0-.77,0-1.15,0l.23.27c-.72.22-1.43.44-1.9.44h-.95c-3.05,0-5.1-.95-7.14-1.95l-.82-.37-.34-.4-21.62-11.78c-4.23-2.42-6.85-6.91-6.87-11.78v-318.21c0-1.95-1.95-4.87-3.9-5.89l-14.47-8.54-.24-.28-25.48-14.66-.09-.1-1.77-.97-5.1-2.93.25.28-17.82-9.73-1.17-1.37-31.37-17.68.68.8-26.21-15.56.78.91-26.31-15.62,1.04,1.21-18.31-10.31-1.47-1.72-29.26-15.93-21.61-12.42-.13-.15-31.42-18.66,1.09,1.27-20.17-11.33-.64-.75-31.42-17.68.78.91-26.3-15.62.71.82-26.28-15.58,1.06,1.24-17.57-9.56-2.04-2.38-7.84-3.94v422.28c0,5.92,2.49,12.53,6.18,17.94l-.26-.26c.11.11.21.22.31.33,2.43,3.55,5.38,6.58,8.48,8.53l23.14,12.53,19.11,11.02.03.03,23.81,13.71,1.71,2.02,24.23,13.19,1.3,1.52,32.44,18.66-.69-.81,26.22,15.57-.93-1.09,20.43,11.75.13.15,25.47,14.65.05.06,25.45,14.61.12.14,25.47,14.65.05.06,25.76,14.81.79.92,31.42,18.66-.78-.91,26.35,15.62-.85-.99,20.46,11.79.02.02,25.43,14.64.1.11,13.78,7.84c2.92,1.95,7.84,2.97,11.79,2.97l-.3-.35h3.22c2.11,0,4.21,0,6.29-.38l.58.67c2.97-.93,5.89-1.95,8.82-2.92l2.97-1.95-.05-.06,8.92-4.86-.07-.08,8.88-4.84-.36-.42,8.25-4.5-.04-.05,8.86-4.87-.24-.29,6.16-3.91,1.87,2.16,11.05-7.05-.95-1.09,6.3-4,.38.44,10.81-6.87-.34-.39,6.16-3.37.07.08,10.81-5.89-.13-.15,9.16-5.01-.03-.04,8.9-4.85-.05-.06,8.87-4.86-.36-.42,8.25-4.5-.08-.09,8.85-4.82-.13-.15,6.73-4.27.41.48,8.37-5.34.4.47,7.79-4.98.05.06,10.81-6.87-.04-.04,8.95-4.88-.07-.08,8.88-4.84-.06-.07,8.93-4.85-.08-.09,8.85-4.82-.36-.42,8.25-4.5-.02-.03,8.89-4.84-.15-.17,6.6-4.21.37.44,8.47-5.38.39.46,7.77-4.95.03.04,10.86-6.87-.07-.08,8.88-4.84-.03-.03,8.89-4.89-.06-.07,8.88-4.8-.05-.06,8.92-4.86-.38-.44,8.22-4.48-.05-.06,8.92-4.86-.13-.16,8.74-4.76-.15-.17,6.61-4.2.4.47,7.82-5,.07.08,8.43-5.38.39.46,10.81-6.87-.04-.05,8.9-4.87-.07-.08,8.88-4.84-.05-.06,8.87-4.86-.36-.42,8.25-4.5-.02-.03,5.61-2.81,1.15-1.16.09.1c2.97-2,5.94-5.89,8.86-8.82l-.31-.36c1.9-2.91,3.34-6.11,4.25-9.48l-.13-.15c.67-2.18,1.08-4.44,1.22-6.72v-421.92l-3.55,2-.35-.53Z"/></g></svg>