<?xml version="1.0" encoding="utf-8"?>
<!-- Generator: Adobe Illustrator 27.8.1, SVG Export Plug-In . SVG Version: 6.00 Build 0)  -->
<svg version="1.1" id="Layer_1" xmlns="http://www.w3.org/2000/svg" xmlns:xlink="http://www.w3.org/1999/xlink" x="0px" y="0px"
	 width="130px" height="100px" viewBox="0 0 130 100" style="enable-background:new 0 0 130 100;" xml:space="preserve">
<style type="text/css">
	.st0{fill:#FFFFFF;}
	.st1{fill:#F49D20;}
	.st2{fill:#E82128;}
	.st3{fill:#F16223;}
	.st4{fill:#EB2027;}
	.st5{fill:#7272B4;}
	.st6{fill:#119FDA;}
	.st7{fill:#4285F4;}
	.st8{fill:#34A853;}
	.st9{fill:#FABB05;}
	.st10{fill:#E94235;}
</style>
<path class="st1" d="M108.7,67.8v-0.9h0.4v-0.2h-0.9v0.2h0.4v0.9H108.7z M110.6,67.8v-1.1h-0.3l-0.3,0.8l-0.4-0.8h-0.3v1.1h0.2V67
	l0.3,0.7h0.2l0.3-0.7v0.8H110.6z"/>
<path class="st2" d="M65,72.6c-11.8,9.3-28.7,7.9-38.9-3.1c-10.2-11-10.2-28,0-39c10.2-11,27.1-12.4,38.9-3.1
	C58.1,32.9,54.1,41.2,54.2,50C54.1,58.8,58.1,67.1,65,72.6z"/>
<path class="st3" d="M65,72.6C58.1,67.1,54.1,58.8,54.2,50c0-8.8,4-17.1,10.8-22.6c1.8,1.4,3.4,3,4.8,4.8
	C79.6,44.7,77.5,62.8,65,72.6z"/>
<path class="st1" d="M111.5,50c0,11-6.3,21-16.2,25.8c-9.9,4.8-21.7,3.6-30.3-3.2c12.5-9.8,14.6-27.9,4.8-40.3
	c-1.4-1.8-3-3.4-4.8-4.8c8.6-6.8,20.4-8,30.3-3.2C105.2,29,111.5,39,111.5,50z"/>
</svg>
