<svg xmlns="http://www.w3.org/2000/svg" xmlns:xlink="http://www.w3.org/1999/xlink" width="130" zoomAndPan="magnify" viewBox="0 0 97.5 74.999997" height="100" preserveAspectRatio="xMidYMid meet" version="1.0"><path fill="#fdfdfd" d="M 25.417969 21.898438 C 25.476562 21.910156 25.539062 21.917969 25.601562 21.929688 C 26.289062 22.050781 26.957031 22.203125 27.621094 22.40625 C 27.683594 22.425781 27.742188 22.441406 27.804688 22.460938 C 28.464844 22.671875 28.464844 22.671875 28.738281 22.902344 C 28.78125 23.179688 28.792969 23.410156 28.789062 23.6875 C 28.789062 23.765625 28.789062 23.847656 28.789062 23.929688 C 28.789062 24.195312 28.785156 24.460938 28.78125 24.726562 C 28.78125 24.910156 28.78125 25.09375 28.777344 25.277344 C 28.777344 25.761719 28.773438 26.242188 28.769531 26.726562 C 28.761719 27.222656 28.761719 27.714844 28.757812 28.207031 C 28.753906 29.175781 28.746094 30.144531 28.738281 31.113281 C 28.320312 31.058594 27.921875 30.984375 27.511719 30.875 C 27.398438 30.84375 27.289062 30.8125 27.171875 30.78125 C 27.113281 30.765625 27.054688 30.75 26.992188 30.734375 C 23.148438 29.707031 18.90625 28.898438 15.207031 30.851562 C 13.648438 31.777344 12.753906 33.238281 12.265625 34.945312 C 11.609375 37.644531 11.777344 40.597656 13.195312 43.027344 C 13.996094 44.171875 15.214844 44.707031 16.550781 44.960938 C 16.96875 45.027344 17.382812 45.070312 17.804688 45.105469 C 17.886719 45.109375 17.96875 45.117188 18.050781 45.125 C 19.289062 45.171875 20.542969 44.777344 21.507812 44.011719 C 21.734375 43.808594 21.734375 43.808594 22.050781 43.390625 C 19.367188 43.34375 19.367188 43.34375 16.628906 43.300781 C 16.605469 41.570312 16.605469 41.570312 16.59375 40.832031 C 16.585938 40.332031 16.578125 39.828125 16.570312 39.324219 C 16.566406 38.921875 16.558594 38.515625 16.554688 38.109375 C 16.550781 37.957031 16.550781 37.800781 16.546875 37.644531 C 16.542969 37.429688 16.539062 37.214844 16.539062 36.996094 C 16.535156 36.902344 16.535156 36.902344 16.535156 36.800781 C 16.53125 36.652344 16.535156 36.5 16.539062 36.351562 C 16.707031 36.179688 16.992188 36.246094 17.214844 36.246094 C 17.277344 36.246094 17.339844 36.246094 17.402344 36.246094 C 17.613281 36.246094 17.820312 36.246094 18.03125 36.246094 C 18.179688 36.246094 18.328125 36.246094 18.480469 36.246094 C 18.886719 36.246094 19.292969 36.246094 19.699219 36.246094 C 20.121094 36.246094 20.546875 36.246094 20.972656 36.246094 C 21.683594 36.246094 22.398438 36.246094 23.113281 36.246094 C 23.9375 36.25 24.761719 36.246094 25.589844 36.246094 C 26.296875 36.246094 27.003906 36.246094 27.710938 36.246094 C 28.136719 36.246094 28.558594 36.246094 28.980469 36.246094 C 29.378906 36.246094 29.777344 36.246094 30.175781 36.246094 C 30.320312 36.246094 30.46875 36.246094 30.613281 36.246094 C 30.8125 36.246094 31.011719 36.246094 31.210938 36.246094 C 31.324219 36.246094 31.433594 36.246094 31.550781 36.246094 C 31.808594 36.257812 31.808594 36.257812 31.988281 36.351562 C 31.988281 41.828125 31.988281 47.308594 31.988281 52.957031 C 29.871094 52.957031 27.753906 52.957031 25.574219 52.957031 C 25.472656 52.75 25.472656 52.640625 25.472656 52.410156 C 25.472656 52.335938 25.472656 52.261719 25.472656 52.183594 C 25.472656 52.0625 25.472656 52.0625 25.472656 51.9375 C 25.472656 51.8125 25.472656 51.8125 25.472656 51.6875 C 25.472656 51.511719 25.472656 51.332031 25.472656 51.15625 C 25.472656 50.886719 25.472656 50.617188 25.472656 50.347656 C 25.472656 50.175781 25.472656 50.003906 25.472656 49.835938 C 25.472656 49.753906 25.472656 49.671875 25.472656 49.589844 C 25.472656 49.515625 25.472656 49.4375 25.472656 49.359375 C 25.472656 49.261719 25.472656 49.261719 25.472656 49.160156 C 25.484375 48.984375 25.484375 48.984375 25.574219 48.714844 C 25.515625 48.714844 25.457031 48.714844 25.394531 48.714844 C 25.359375 48.8125 25.359375 48.8125 25.320312 48.917969 C 24.84375 50.027344 23.6875 50.980469 22.683594 51.601562 C 22.589844 51.660156 22.5 51.71875 22.402344 51.777344 C 19.195312 53.707031 15.230469 53.902344 11.644531 53.070312 C 8.730469 52.34375 6.144531 50.679688 4.34375 48.261719 C 4.277344 48.175781 4.210938 48.089844 4.144531 48 C 3.367188 46.929688 2.695312 45.722656 2.265625 44.472656 C 2.242188 44.410156 2.21875 44.351562 2.195312 44.289062 C 1.957031 43.613281 1.78125 42.917969 1.632812 42.214844 C 1.617188 42.152344 1.605469 42.085938 1.589844 42.019531 C 1.078125 39.484375 1.140625 36.519531 1.722656 34.003906 C 1.742188 33.921875 1.761719 33.839844 1.78125 33.753906 C 2.421875 31.058594 3.738281 28.625 5.664062 26.640625 C 5.773438 26.527344 5.878906 26.414062 5.984375 26.300781 C 7.082031 25.136719 8.449219 24.277344 9.855469 23.535156 C 9.917969 23.5 9.980469 23.46875 10.042969 23.433594 C 14.753906 20.976562 20.3125 21 25.417969 21.898438 Z M 18.167969 21.457031 C 18.167969 21.488281 18.167969 21.515625 18.167969 21.546875 C 18.375 21.546875 18.582031 21.546875 18.796875 21.546875 C 18.796875 21.519531 18.796875 21.488281 18.796875 21.457031 C 18.589844 21.457031 18.382812 21.457031 18.167969 21.457031 Z M 20.785156 21.457031 C 20.785156 21.488281 20.785156 21.515625 20.785156 21.546875 C 20.964844 21.546875 21.144531 21.546875 21.328125 21.546875 C 21.328125 21.519531 21.328125 21.488281 21.328125 21.457031 C 21.148438 21.457031 20.96875 21.457031 20.785156 21.457031 Z M 1.542969 35.539062 C 1.632812 35.71875 1.632812 35.71875 1.632812 35.71875 Z M 1.453125 36.351562 C 1.542969 36.710938 1.542969 36.710938 1.542969 36.710938 Z M 1.453125 39.871094 C 1.542969 40.230469 1.542969 40.230469 1.542969 40.230469 Z M 1.542969 40.863281 C 1.632812 41.042969 1.632812 41.042969 1.632812 41.042969 Z M 1.632812 41.492188 C 1.722656 41.675781 1.722656 41.675781 1.722656 41.675781 Z M 1.722656 42.035156 C 1.8125 42.214844 1.8125 42.214844 1.8125 42.214844 Z M 17.441406 45.195312 C 17.804688 45.285156 17.804688 45.285156 17.804688 45.285156 Z M 17.441406 45.195312 " fill-opacity="1" fill-rule="nonzero"/><path fill="#fdfdfd" d="M 81.140625 22.632812 C 81.140625 25.3125 81.140625 27.992188 81.140625 30.753906 C 80.582031 30.652344 80.027344 30.550781 79.472656 30.433594 C 78.054688 30.132812 76.632812 29.875 75.191406 29.683594 C 75.125 29.671875 75.054688 29.664062 74.984375 29.652344 C 71.804688 29.148438 71.804688 29.148438 68.851562 30.121094 C 68.605469 30.398438 68.503906 30.667969 68.449219 31.035156 C 68.496094 31.339844 68.582031 31.5 68.761719 31.746094 C 69.816406 32.386719 71.289062 32.527344 72.476562 32.789062 C 75.351562 33.429688 78.164062 34.253906 80.324219 36.351562 C 80.410156 36.421875 80.410156 36.421875 80.492188 36.496094 C 81.8125 37.695312 82.582031 39.648438 82.683594 41.402344 C 82.707031 41.890625 82.710938 42.375 82.714844 42.863281 C 82.714844 42.96875 82.714844 42.96875 82.714844 43.074219 C 82.722656 44.3125 82.59375 45.527344 82.160156 46.699219 C 82.136719 46.761719 82.117188 46.828125 82.089844 46.890625 C 81.183594 49.28125 79.089844 51.105469 76.8125 52.164062 C 74.441406 53.214844 71.835938 53.519531 69.265625 53.515625 C 69.199219 53.515625 69.136719 53.515625 69.070312 53.515625 C 61.71875 53.496094 61.71875 53.496094 59.09375 52.234375 C 58.859375 51.878906 58.890625 51.582031 58.894531 51.171875 C 58.894531 51.089844 58.894531 51.007812 58.894531 50.925781 C 58.894531 50.65625 58.894531 50.386719 58.894531 50.121094 C 58.894531 49.933594 58.894531 49.75 58.894531 49.5625 C 58.898438 49.074219 58.898438 48.585938 58.902344 48.09375 C 58.902344 47.597656 58.902344 47.097656 58.90625 46.597656 C 58.90625 45.617188 58.910156 44.640625 58.914062 43.660156 C 59.339844 43.710938 59.742188 43.765625 60.160156 43.878906 C 60.253906 43.902344 60.351562 43.929688 60.453125 43.957031 C 60.554688 43.984375 60.660156 44.011719 60.765625 44.039062 C 66.484375 45.613281 66.484375 45.613281 72.105469 44.832031 C 72.308594 44.699219 72.476562 44.550781 72.644531 44.382812 C 72.738281 43.898438 72.738281 43.511719 72.644531 43.027344 C 71.425781 42.515625 70.101562 42.261719 68.8125 41.980469 C 66.019531 41.363281 63.371094 40.710938 61.171875 38.785156 C 61.097656 38.722656 61.023438 38.65625 60.945312 38.589844 C 59.523438 37.269531 58.644531 35.320312 58.53125 33.390625 C 58.519531 33.007812 58.515625 32.625 58.519531 32.242188 C 58.519531 32.140625 58.519531 32.140625 58.519531 32.039062 C 58.519531 30.972656 58.589844 29.96875 58.914062 28.949219 C 58.945312 28.847656 58.976562 28.746094 59.007812 28.640625 C 59.433594 27.4375 60.058594 26.296875 60.902344 25.339844 C 60.96875 25.246094 61.039062 25.15625 61.109375 25.0625 C 61.484375 24.65625 61.910156 24.324219 62.347656 23.984375 C 62.417969 23.929688 62.488281 23.875 62.5625 23.816406 C 66.878906 20.625 76.265625 20.199219 81.140625 22.632812 Z M 70.117188 21.457031 C 70.117188 21.488281 70.117188 21.515625 70.117188 21.546875 C 70.296875 21.546875 70.472656 21.546875 70.660156 21.546875 C 70.660156 21.519531 70.660156 21.488281 70.660156 21.457031 C 70.480469 21.457031 70.300781 21.457031 70.117188 21.457031 Z M 72.554688 21.457031 C 72.554688 21.488281 72.554688 21.515625 72.554688 21.546875 C 72.734375 21.546875 72.914062 21.546875 73.097656 21.546875 C 73.097656 21.519531 73.097656 21.488281 73.097656 21.457031 C 72.917969 21.457031 72.742188 21.457031 72.554688 21.457031 Z M 58.640625 30.664062 C 58.734375 30.933594 58.734375 30.933594 58.734375 30.933594 Z M 58.640625 33.550781 C 58.734375 33.730469 58.734375 33.730469 58.734375 33.730469 Z M 72.828125 43.480469 C 72.917969 43.660156 72.917969 43.660156 72.917969 43.660156 Z M 72.828125 43.929688 C 72.917969 44.113281 72.917969 44.113281 72.917969 44.113281 Z M 68.128906 45.375 C 68.128906 45.40625 68.128906 45.433594 68.128906 45.464844 C 68.398438 45.464844 68.664062 45.464844 68.941406 45.464844 C 68.941406 45.433594 68.941406 45.40625 68.941406 45.375 C 68.671875 45.375 68.40625 45.375 68.128906 45.375 Z M 69.574219 45.375 C 69.574219 45.40625 69.574219 45.433594 69.574219 45.464844 C 69.78125 45.464844 69.992188 45.464844 70.207031 45.464844 C 70.207031 45.433594 70.207031 45.40625 70.207031 45.375 C 70 45.375 69.789062 45.375 69.574219 45.375 Z M 69.574219 45.375 " fill-opacity="1" fill-rule="nonzero"/><path fill="#fdfdfd" d="M 35.53125 21.898438 C 35.613281 21.898438 35.695312 21.898438 35.78125 21.898438 C 35.871094 21.898438 35.960938 21.898438 36.054688 21.898438 C 36.195312 21.898438 36.195312 21.898438 36.34375 21.898438 C 36.65625 21.898438 36.972656 21.898438 37.289062 21.898438 C 37.507812 21.898438 37.726562 21.898438 37.941406 21.898438 C 38.402344 21.898438 38.859375 21.898438 39.316406 21.898438 C 39.90625 21.898438 40.492188 21.898438 41.082031 21.898438 C 41.535156 21.898438 41.984375 21.898438 42.433594 21.898438 C 42.652344 21.898438 42.867188 21.898438 43.085938 21.898438 C 43.390625 21.898438 43.691406 21.898438 43.996094 21.898438 C 44.085938 21.898438 44.175781 21.898438 44.269531 21.898438 C 44.351562 21.898438 44.433594 21.898438 44.519531 21.898438 C 44.625 21.898438 44.625 21.898438 44.734375 21.898438 C 44.910156 21.910156 44.910156 21.910156 45.089844 22 C 45.121094 29.535156 45.148438 37.070312 45.179688 44.832031 C 48.726562 44.863281 52.277344 44.894531 55.933594 44.921875 C 55.933594 47.574219 55.933594 50.226562 55.933594 52.957031 C 49.074219 52.957031 42.21875 52.957031 35.152344 52.957031 C 35.125 45.191406 35.125 45.191406 35.113281 41.957031 C 35.113281 41.214844 35.109375 40.476562 35.109375 39.734375 C 35.109375 39.640625 35.109375 39.550781 35.105469 39.453125 C 35.101562 37.953125 35.097656 36.453125 35.09375 34.953125 C 35.085938 33.414062 35.082031 31.875 35.078125 30.335938 C 35.074219 29.386719 35.070312 28.4375 35.066406 27.484375 C 35.066406 26.835938 35.0625 26.183594 35.0625 25.535156 C 35.058594 25.15625 35.058594 24.78125 35.058594 24.40625 C 35.054688 24.0625 35.054688 23.71875 35.054688 23.375 C 35.054688 23.25 35.054688 23.125 35.054688 23 C 35.050781 22.832031 35.050781 22.664062 35.050781 22.492188 C 35.050781 22.398438 35.050781 22.304688 35.050781 22.210938 C 35.070312 21.851562 35.210938 21.898438 35.53125 21.898438 Z M 35.53125 21.898438 " fill-opacity="1" fill-rule="nonzero"/><path fill="#fdfdfd" d="M 92.523438 43.117188 C 92.605469 43.15625 92.683594 43.191406 92.765625 43.230469 C 93.785156 43.730469 94.558594 44.5 95.144531 45.464844 C 95.179688 45.523438 95.214844 45.582031 95.253906 45.640625 C 95.945312 46.875 95.933594 48.40625 95.578125 49.742188 C 95.195312 51.039062 94.183594 52.175781 93.003906 52.816406 C 91.757812 53.414062 90.230469 53.554688 88.898438 53.171875 C 88.71875 53.105469 88.542969 53.03125 88.367188 52.957031 C 88.285156 52.921875 88.203125 52.890625 88.121094 52.855469 C 86.855469 52.261719 85.863281 51.046875 85.359375 49.769531 C 84.882812 48.324219 85.0625 46.992188 85.714844 45.640625 C 86.40625 44.277344 87.523438 43.382812 88.972656 42.90625 C 89.039062 42.886719 89.109375 42.867188 89.179688 42.847656 C 89.234375 42.832031 89.289062 42.816406 89.347656 42.800781 C 90.347656 42.582031 91.617188 42.640625 92.523438 43.117188 Z M 85.203125 47.359375 C 85.296875 47.539062 85.296875 47.539062 85.296875 47.539062 Z M 85.203125 47.359375 " fill-opacity="1" fill-rule="nonzero"/><path fill="#fdfdfd" d="M 34.972656 22.089844 C 35 22.089844 35.03125 22.089844 35.0625 22.089844 C 35.0625 32.214844 35.0625 42.34375 35.0625 52.777344 C 35.03125 52.777344 35 52.777344 34.972656 52.777344 C 34.972656 42.648438 34.972656 32.523438 34.972656 22.089844 Z M 34.972656 22.089844 " fill-opacity="1" fill-rule="nonzero"/><path fill="#fdfdfd" d="M 45.179688 44.742188 C 48.640625 44.742188 52.097656 44.742188 55.660156 44.742188 C 55.660156 44.773438 55.660156 44.800781 55.660156 44.832031 C 52.203125 44.832031 48.742188 44.832031 45.179688 44.832031 C 45.179688 44.804688 45.179688 44.773438 45.179688 44.742188 Z M 45.179688 44.742188 " fill-opacity="1" fill-rule="nonzero"/><path fill="#fdfdfd" d="M 16.449219 36.441406 C 16.480469 36.441406 16.507812 36.441406 16.539062 36.441406 C 16.539062 38.613281 16.539062 40.789062 16.539062 43.027344 C 16.511719 43.027344 16.480469 43.027344 16.449219 43.027344 C 16.449219 40.855469 16.449219 38.679688 16.449219 36.441406 Z M 16.449219 36.441406 " fill-opacity="1" fill-rule="nonzero"/><path fill="#fdfdfd" d="M 90.082031 42.667969 C 90.382812 42.667969 90.679688 42.667969 90.988281 42.667969 C 90.988281 42.695312 90.988281 42.726562 90.988281 42.757812 C 90.6875 42.757812 90.390625 42.757812 90.082031 42.757812 C 90.082031 42.726562 90.082031 42.699219 90.082031 42.667969 Z M 90.082031 42.667969 " fill-opacity="1" fill-rule="nonzero"/><path fill="#fdfdfd" d="M 58.460938 31.835938 C 58.492188 31.835938 58.519531 31.835938 58.550781 31.835938 C 58.550781 32.105469 58.550781 32.375 58.550781 32.648438 C 58.523438 32.648438 58.492188 32.648438 58.460938 32.648438 C 58.460938 32.382812 58.460938 32.113281 58.460938 31.835938 Z M 58.460938 31.835938 " fill-opacity="1" fill-rule="nonzero"/></svg>