<?xml version="1.0" encoding="utf-8"?>
<!-- Generator: Adobe Illustrator 27.8.1, SVG Export Plug-In . SVG Version: 6.00 Build 0)  -->
<svg version="1.1" id="Layer_1" xmlns="http://www.w3.org/2000/svg" xmlns:xlink="http://www.w3.org/1999/xlink" x="0px" y="0px"
	 width="130px" height="100px" viewBox="0 0 130 100" style="enable-background:new 0 0 130 100;" xml:space="preserve">
<style type="text/css">
	.st0{fill:#FFFFFF;}
	.st1{fill:#F49D20;}
	.st2{fill:#E82128;}
	.st3{fill:#F16223;}
	.st4{fill:#EB2027;}
	.st5{fill:#7272B4;}
	.st6{fill:#119FDA;}
	.st7{fill:#4285F4;}
	.st8{fill:#34A853;}
	.st9{fill:#FABB05;}
	.st10{fill:#E94235;}
</style>
<g>
	<path class="st0" d="M81.2,26c-0.4-0.5-1-0.9-1.6-1.2c0,0.2-0.1,0.4-0.1,0.6C78,32.9,73,35.6,66.6,35.6h-3.3
		c-0.8,0-1.4,0.6-1.6,1.4l0.1-0.3l1.9-11.8c0.1-0.5,0.4-0.8,0.8-1c0.2-0.1,0.4-0.1,0.6-0.1h8.7c1,0,2,0.1,2.9,0.2
		c0.3,0,0.5,0.1,0.7,0.1c0.2,0.1,0.5,0.1,0.7,0.2c0.1,0,0.2,0.1,0.3,0.1c0.4,0.1,0.8,0.3,1.2,0.5c0.4-2.8,0-4.7-1.5-6.4
		c-1.7-1.9-4.7-2.7-8.5-2.7H58.4c-0.8,0-1.4,0.6-1.6,1.4l-4.6,29.4c-0.1,0.6,0.4,1.1,0.9,1.1h6.9l-0.5,3c-0.1,0.5,0.3,1,0.8,1h5.8
		c0.7,0,1.3-0.5,1.4-1.2l0.1-0.3l1.1-6.9l0.1-0.4c0.1-0.7,0.7-1.2,1.4-1.2H71c5.6,0,10-2.3,11.3-8.9C82.9,29.9,82.6,27.6,81.2,26z"
		/>
	<g>
		<g>
			<g>
				<path class="st0" d="M83.2,56.6h-8.1c-0.6,0-1,0.4-1.1,0.9l-3.3,20.7c-0.1,0.4,0.3,0.8,0.7,0.8h4.2c0.4,0,0.7-0.3,0.8-0.7
					l0.9-5.9c0.1-0.5,0.6-0.9,1.1-0.9h2.6c5.3,0,8.4-2.6,9.2-7.7c0.4-2.2,0-4-1-5.2C87.9,57.3,85.9,56.6,83.2,56.6z M84.1,64.2
					c-0.4,2.9-2.7,2.9-4.8,2.9h-1.2l0.9-5.4c0.1-0.3,0.3-0.6,0.7-0.6h0.6c1.5,0,2.8,0,3.6,0.8C84.1,62.5,84.3,63.2,84.1,64.2z"/>
				<path class="st0" d="M25.5,56.6h-8.1c-0.6,0-1,0.4-1.1,0.9L13,78.3c-0.1,0.4,0.3,0.8,0.7,0.8h3.9c0.6,0,1-0.4,1.1-0.9l0.9-5.6
					c0.1-0.5,0.6-0.9,1.1-0.9h2.6c5.3,0,8.4-2.6,9.2-7.7c0.4-2.2,0-4-1-5.2C30.2,57.3,28.2,56.6,25.5,56.6z M26.4,64.2
					c-0.4,2.9-2.7,2.9-4.8,2.9h-1.2l0.9-5.4c0.1-0.3,0.3-0.6,0.7-0.6h0.6c1.5,0,2.8,0,3.6,0.8C26.4,62.5,26.6,63.2,26.4,64.2z"/>
				<path class="st0" d="M49.7,64.1h-3.9c-0.3,0-0.6,0.2-0.7,0.6L45,65.8l-0.3-0.4c-0.8-1.2-2.7-1.6-4.6-1.6c-4.3,0-7.9,3.2-8.6,7.8
					c-0.4,2.3,0.2,4.4,1.4,6c1.2,1.4,2.9,2,4.9,2c3.4,0,5.4-2.2,5.4-2.2L43,78.3c-0.1,0.4,0.3,0.8,0.7,0.8h3.5c0.6,0,1-0.4,1.1-0.9
					l2.1-13.3C50.4,64.5,50.1,64.1,49.7,64.1z M44.3,71.7c-0.4,2.2-2.1,3.7-4.4,3.7c-1.1,0-2-0.4-2.6-1c-0.6-0.7-0.8-1.6-0.6-2.7
					c0.3-2.2,2.1-3.7,4.3-3.7c1.1,0,2,0.4,2.6,1.1C44.2,69.6,44.4,70.6,44.3,71.7z"/>
				<path class="st0" d="M107.4,64.1h-3.9c-0.3,0-0.6,0.2-0.7,0.6l-0.2,1.1l-0.3-0.4c-0.8-1.2-2.7-1.6-4.6-1.6
					c-4.3,0-7.9,3.2-8.6,7.8c-0.4,2.3,0.2,4.4,1.4,6c1.2,1.4,2.9,2,4.9,2c3.4,0,5.4-2.2,5.4-2.2l-0.2,1.1c-0.1,0.4,0.3,0.8,0.7,0.8
					h3.5c0.6,0,1-0.4,1.1-0.9l2.1-13.3C108.1,64.5,107.8,64.1,107.4,64.1z M102,71.7c-0.4,2.2-2.1,3.7-4.4,3.7c-1.1,0-2-0.4-2.6-1
					c-0.6-0.7-0.8-1.6-0.6-2.7c0.3-2.2,2.1-3.7,4.3-3.7c1.1,0,2,0.4,2.6,1.1C101.9,69.6,102.1,70.6,102,71.7z"/>
				<path class="st0" d="M70.3,64.1h-3.9c-0.4,0-0.7,0.2-0.9,0.5l-5.4,7.9l-2.3-7.6c-0.1-0.5-0.6-0.8-1.1-0.8h-3.8
					c-0.5,0-0.8,0.5-0.6,0.9l4.3,12.6l-4,5.7c-0.3,0.4,0,1.1,0.6,1.1H57c0.4,0,0.7-0.2,0.9-0.5l12.9-18.7
					C71.2,64.7,70.8,64.1,70.3,64.1z"/>
				<path class="st0" d="M111.9,57.2l-3.3,21.1c-0.1,0.4,0.3,0.8,0.7,0.8h3.3c0.6,0,1-0.4,1.1-0.9l3.3-20.7c0.1-0.4-0.3-0.8-0.7-0.8
					h-3.7C112.3,56.6,112,56.9,111.9,57.2z"/>
			</g>
		</g>
	</g>
</g>
</svg>
